<svg xmlns="http://www.w3.org/2000/svg" viewBox="0 0 150 150">
<!-- SVG created with Arrow, by QuiverAI (https://quiver.ai) -->
  <style type="text/css">.cls-0 {fill:#F44789;}
.cls-1 {fill:url(#SVGID_1_);}
.cls-2 {fill:#FAEEE6;}
.cls-3 {fill:url(#SVGID_2_);}
.cls-4 {fill:#FFFFFF;}
.cls-5 {fill:url(#SVGID_3_);}
.cls-6 {fill:none;stroke:#B8B6B5;stroke-width:0.9558;stroke-linecap:round;stroke-linejoin:round;stroke-miterlimit:10;}
.cls-7 {fill:#BCBCBB;}
.cls-8 {fill:#7AE271;}
.cls-9 {fill:url(#SVGID_4_);}
.cls-10 {fill:#E5DDD4;}
.cls-11 {fill:url(#SVGID_5_);}
.cls-12 {fill:url(#SVGID_6_);}
.cls-13 {fill:url(#SVGID_7_);}
.cls-14 {fill:#D5D4CE;}
.cls-15 {fill:url(#SVGID_8_);}
.cls-16 {fill:#BCBBBB;}
.cls-17 {fill:url(#SVGID_9_);}
.cls-18 {fill:url(#SVGID_10_);}
.cls-19 {fill:url(#SVGID_11_);}
.cls-20 {fill:url(#SVGID_12_);}
.cls-21 {fill:#A4A2A1;}
.cls-22 {fill:url(#SVGID_13_);}</style>
  <path class="cls-0" d="m138.4 56.7c-0.9 1.7-2.1 3.3-3.4 4.9 0.5 3.3 1 6.9 1.3 10.4 0.2 27.5-20.4 68.3-61.7 68.7 15.1 0.1 64.3-9.7 65.4-66.7 0.1-6.6-0.7-12.9-1.6-17.3z"/>
  <linearGradient id="SVGID_1_" x1="110.2" x2="110.2" y1="140.7" y2="59" gradientUnits="userSpaceOnUse">
    <stop stop-color="#7AE271" offset="0"/>
    <stop stop-color="#CFDECB" offset="1"/>
  </linearGradient>
  <path class="cls-1" d="m135 61.6-4 3.4c0.3 2.4 0.4 4.9 0.4 7.3 0 28.4-19.5 63-58.9 67.6-3.5 0.5-6.5 0.4-11.1 0.1 2.2 0.4 7.9 0.7 11.2 0.7h2c41.3-0.4 62.3-34.2 61.3-69.1-0.2-3.5-0.5-6.9-0.9-10z"/>
  <path class="cls-0" d="m139.2 12.5c-0.7-1-0.1-0.7-2.7 1.5-4.2 3.5-12.8 6.2-17.8 7.4-2.2 0.7 18.6-0.5 20.4-9 2.4 13 1.2 20.4-1.2 29-7.2 23.9-25 30.5-37.9 28.6-0.1 0-2.5-0.7-3-1.1 1.9 1.3 6.9 1.5 8.8 1.5 18.4 0 33.5-13.7 35.7-36.7 0.6-9.8-0.9-19.4-2.3-21.2z"/>
  <linearGradient id="SVGID_2_" x1="91.71" x2="140.1" y1="46.12" y2="46.12" gradientUnits="userSpaceOnUse">
    <stop stop-color="#CBE6BD" offset="0"/>
    <stop stop-color="#F6ECDF" offset=".5056"/>
    <stop stop-color="#F6EDDF" offset="1"/>
  </linearGradient>
  <path class="cls-3" d="m95.3 67.6c-5.3-7.4-11.1-28.6 7.4-38.2 12.8-7.4 26-7.4 33.9-14.3l2.3-2.7c1.1 2.5 1.4 12.1 0.5 18-3.1 21.2-14.7 38.9-35.3 39.6-2.8-0.1-6.2-0.1-8.8-2.4z"/>
  <path class="cls-2" d="m14.6 104.1c0.9-2.2 2.4-4.8 3.9-7.1-2.2-6.3-3.9-12.9-3.9-21.1 0-29.9 25.5-58.8 58.3-58.8 9.8 0 18.4 1.9 26.5 6.4l1.3 0.8c2.8-2 7-4.1 10.6-5-9.8-5.8-19.2-10.3-35-10.3-33.4 0-68.2 24.9-68.2 66.5 0 10 2.6 20.9 6.5 28.6z"/>
  <linearGradient id="SVGID_3_" x1="8.1" x2="111.2" y1="56.33" y2="56.33" gradientUnits="userSpaceOnUse">
    <stop stop-color="#D5D5CF" offset="0"/>
    <stop stop-color="#EFDED3" offset="1"/>
  </linearGradient>
  <path class="cls-5" d="m17.1 99.3c-2-5.7-4.5-12.8-4.5-22.8 0-30 25.3-67.2 63.7-67.4 11.2 0 20.6 2.7 34.9 10.2-2.8 0.6-7.4 2.7-10.6 5-6.9-3.6-15.2-7.2-27.6-7.2-32.6 0-60.1 27.6-60.1 58.9 0 7.2 1.4 16.5 4.2 23.3z"/>
  <linearGradient id="SVGID_4_" x1="70.6" x2="70.6" y1="140.7" y2="57" gradientUnits="userSpaceOnUse">
    <stop stop-color="#EBE7DD" offset="0"/>
    <stop stop-color="#CACACA" offset="1"/>
  </linearGradient>
  <path class="cls-9" d="m118.4 72.7c0.2 2.2 0.1 4 0.1 5.3-0.7 22.7-17.4 51.1-49.2 56.1-8.8 1.6-16.7 0.6-28.7-1.6 6.3 3.5 12.8 6 20.8 7.4 41 1.1 74.4-31.5 74.4-67.5 0-3.5-0.3-7.4-0.9-10.8-3.2 3.9-8.7 8.3-16.5 11.1z"/>
  <path class="cls-8" d="m95.1 68c-4.8-7-10.8-24.6 2.3-35.6 5.9-5.7 15.6-9.3 22.4-10.9l3.1-0.5c-10.7 2.4-31 8.6-30.8 31 0.1 5.9 1.8 9.9 3.4 14.4v1.6z"/>
  <linearGradient id="SVGID_5_" x1="97.99" x2="136.6" y1="57.2" y2="42.6" gradientUnits="userSpaceOnUse">
    <stop stop-color="#7AE271" offset="0"/>
    <stop stop-color="#CBE6BD" offset="1"/>
  </linearGradient>
  <path class="cls-11" d="m97.5 68.9c7.8 2.1 17.4 0.7 25.1-5.3 8-5.5 13.3-15 15-22-7.5 8.4-12.9 13.4-25.4 15.8-4 0.3-8.1 0.8-10.1 2.2l-4.6 9.3z"/>
  <path class="cls-2" d="m99.9 32.7c-2.5 6.3-3 13.7 2.6 21.6l2.1-3.4c0.4-0.8 0-3-0.1-4.2-0.4-4.7 0-10.2 3.7-14.2-1.2 4.5-1.7 8.5-0.5 14.4l8.1-7.2c0.8-4.3 0.5-9.8 5.6-14.1-1.9 4-2.4 10.5-2.4 11.3l15.3-15c-7.3 11.1-28.4 23.5-34.4 38.2l-4.5 6.4-0.1-0.1c-2.4-5.3-5-13.7-2.2-23l1.4-3.3 2.8-4.5 2.6-2.9z"/>
  <path class="cls-4" d="m104.5 55.5c5.6-2.4 16.1-1.1 21.3-4.8-3.2 4-8 6-10.8 6.3 5.1-0.6 12.4-2 15.1-6-7 5-15.2 1.1-25.6 4.5z"/>
  <path class="cls-4" d="m112.1 44.1c5.6-2 14.2-3.1 20.8-7-5.2 6.5-11.9 4.9-19 6.5l-1.8 0.5z"/>
  <path class="cls-4" d="m106.6 49.6c-0.9-4.1-3.6-11.6 1.6-17.1-1.9 7.4-0.5 14.4-0.5 14.4l-1.1 2.7z"/>
  <linearGradient id="SVGID_6_" x1="89" x2="134.6" y1="98.92" y2="19.62" gradientUnits="userSpaceOnUse">
    <stop stop-color="#BAEA9F" offset="0"/>
    <stop stop-color="#7CD661" offset=".4944"/>
    <stop stop-color="#ABAAAA" offset="1"/>
  </linearGradient>
  <path class="cls-12" d="m138.9 12.1c-6.3 5.9-13.5 8.1-20.2 10 5.6-0.7 15.2-3.6 20.4-9.7l-0.2-0.3zm-12.6 19c-12.6 10.9-25.4 21.9-31.3 35.6-4 9.3-6.1 19.2-6 29.8l3.7 2.5c-0.1-12 2.8-26.9 7.3-35.4 5.1-10 10.5-16.9 19.3-24.5 4.2-4.1 11.6-10.1 15-17.1-2.1 3.6-5.2 6.5-8 9.1z"/>
  <path class="cls-0" d="m19.1 125.7c1.5 1.8 5.6 1.4 7.2 1.4 12.6-0.4 23.1-5.7 28-14.6l1.1-3.6-12.3 12c-6.2 3.8-14.1 5.6-22.8 5.2l-1.2-0.4z"/>
  <linearGradient id="SVGID_7_" x1="34.78" x2="34.78" y1="126" y2="90.26" gradientUnits="userSpaceOnUse">
    <stop stop-color="#7AE271" offset="0"/>
    <stop stop-color="#FEF2E4" offset="1"/>
  </linearGradient>
  <path class="cls-13" d="m51.4 93.4c-4.3-3.3-11.7-4.5-18-2.3-6 2.3-16.8 9.9-16.5 25.9 0.2 2.1 0.5 8.5 2.5 8.9 11.1 1.1 22-3.2 26-6.4 5.7-4.4 9.2-9.5 10.7-16.1l-4.7-10z"/>
  <linearGradient id="SVGID_8_" x1="35.68" x2="35.68" y1="123.5" y2="93.06" gradientUnits="userSpaceOnUse">
    <stop stop-color="#CDCDCD" offset="0"/>
    <stop stop-color="#FBEBDF" offset="1"/>
  </linearGradient>
  <path class="cls-15" d="m43.4 93.1c-7.6-0.1-21.3 5.4-24.7 21 3.5 5.6 6.6 7.8 17.4 9.4 6.5-1.9 13.6-6.5 17.8-12.9v-15.6c-2.2-0.4-5.7-2-10.5-1.9z"/>
  <path class="cls-14" d="m19 114c2.9 4.5 4.7 5.6 5.3 5.5 5.1-0.8 13.2-3.4 18.7-7.4l0.7-2.2-10.2-7.4-5.7-3.5-5.7 5.1-3.4 10 0.3-0.1z"/>
  <linearGradient id="SVGID_9_" x1="58.28" x2="71.81" y1="90.93" y2="90.93" gradientUnits="userSpaceOnUse">
    <stop stop-color="#7ADF75" offset="0"/>
    <stop stop-color="#FF4894" offset="1"/>
  </linearGradient>
  <path class="cls-17" d="m58.3 101.9c4.3-1.2 8.4-4.3 10-6.9 2.7-4.1 4.6-10.1 3.2-16.3l-1.7-2.8-7.3 1.6 4.1 10.5-3.6 8.7-4.7 5.2z"/>
  <linearGradient id="SVGID_10_" x1="62.97" x2="62.97" y1="102.2" y2="76.7" gradientUnits="userSpaceOnUse">
    <stop stop-color="#CFCFCF" offset="0"/>
    <stop stop-color="#E3DBD4" offset="1"/>
  </linearGradient>
  <path class="cls-18" d="m65 76.5c-3.7 0.2-10.4 4.1-10.1 10.5 0.1 5.1 4.2 6.5 4.2 6.5l0.3 8.2c4.5-2.2 13.5-10.1 11.2-24.7l-5.6-0.5z"/>
  <linearGradient id="SVGID_11_" x1="55.98" x2="64.45" y1="85.91" y2="85.91" gradientUnits="userSpaceOnUse">
    <stop stop-color="#eee" offset="0"/>
    <stop stop-color="#F8E8DA" offset="1"/>
  </linearGradient>
  <path class="cls-19" d="m61.4 79c-2.7 0.7-6.4 7.5-4.9 13 4.4 3.4 12.4-5.4 6.9-12l-2-1z"/>
  <linearGradient id="SVGID_12_" x1="51.69" x2="61.31" y1="95.41" y2="95.41" gradientUnits="userSpaceOnUse">
    <stop stop-color="#E7E1DC" offset="0"/>
    <stop stop-color="#CBCAC8" offset="1"/>
  </linearGradient>
  <path class="cls-20" d="m54.6 88.6c-2 1.5-4.1 6.1-2.7 9.9s4.2 3.9 7.1 3.2c1.6-1.3 2.9-9 2.1-8.7-4.5 1-5.4-4.5-6.5-4.4z"/>
  <path class="cls-14" d="m52.2 99c1.5 2.5 4.5 3.9 6.8 2.7 0.9-0.8 1.7-4 2.3-7.1l-1.6-3.1s1.3 6.5-7.5 7.5z"/>
  <path class="cls-8" d="m51.4 93.4c-4.3-2.5-10.4-3.5-16.4-1.3-6.1 2-12.7 7.8-15.5 16.9-2.5 9.6-0.5 16.6-0.5 16.9-0.9 0-1.9-1.8-2.1-8.5-0.2-14.9 8.9-22.8 15.2-25.5 5.3-2.5 13.8-2.9 19.3 1.5z"/>
  <path class="cls-7" d="m54.2 104.6 0.4-2-0.9 2.9 0.5-0.9z"/>
  <path class="cls-8" d="m45.5 111.1 6.7 0.5c-2.2 0.4-5.6 0.5-7.1-0.2l0.4-0.3z"/>
  <path class="cls-6" d="m54.9 88.6c-2.7 1.8-4.7 7.3-2.3 11 1.3 2.3 3.7 2.8 6.4 2.3"/>
  <path class="cls-7" d="m69.4 92.1-1.9 2.8c2.2 1.1 6.2 3 9.1 2.8 3.1 1.9 8-0.2 10.8-1.2l0.8-0.1 0.8 0.2v-2.2l-0.9 0.3c-3 0.7-8.7 0.3-11.4 1.8-1.6-1.9-4.9-3.8-7.3-4.4z"/>
  <path class="cls-6" d="m65 76.7c-4.4-0.3-11.5 4.8-9.7 11.9s7.6 5 11.3 0.8"/>
  <linearGradient id="SVGID_13_" x1="-99.5" x2="-69.91" y1="-114.3" y2="-114.3" gradientTransform="matrix(1 -.006 .006 1 154.5 183)" gradientUnits="userSpaceOnUse">
    <stop stop-color="#D5D4CE" offset="0"/>
    <stop stop-color="#F6EBE4" offset="1"/>
  </linearGradient>
  <path class="cls-22" d="m56.7 66c0.7-4.6 6.7-9.4 12.8-9 5.4 0 13.2 3.1 15.5 8.6 0.7 1.3 0.3 2.5 0.3 2.5 0.9 0.8 1.6 1.6 1.3 2.5-1.3 0.3-3.6 0.4-5.2 0-3.9 4-9.9 6.3-15.2 5.5-5.5-0.4-10.3-3.7-9.5-10.1z"/>
  <path class="cls-10" d="m57 66c2.9 4.9 6.7 7.5 12.4 7.4 4 0 7.5-1.3 9.9-3.4l2 0.4-1.4-1.7-3.3-0.7-19.7-4.9v2.9z"/>
  <path class="cls-8" d="m64.6 55c-5.6 1.6-10.5 7.4-8.5 14-0.2-2.3 0.5-10.6 8.8-13l-0.3-1z"/>
  <path class="cls-7" d="m65 57.9c-1.3-3.9-2.5-9.3-2.8-13.8 2.9-5.5 11.2-9.1 9.9-12.6-2.6-0.5-10.3 8.9-11.5 12.1-0.5 1.1 0.8 9.4 3.6 14.4l0.8-0.1z"/>
  <path class="cls-10" d="m65.5 38.6c1.4-3.1 5.5-7.1 6.4-6.5 0.7 1.3-2.6 4.5-6.4 6.5z"/>
  <path class="cls-7" d="m67.9 54c0.2-3 1.2-7.4 2.4-10.5 1.8-2.4 11.6-7.8 14.6-7.3 2.6 0.7 0.8 3.4-4.7 4.7-3.1 0.7-7.2 2.3-8.5 3.1-1 2-2.2 7.6-2.6 10.4l-1.2-0.4z"/>
  <linearGradient id="SVGID_14_" x1="77.1" x2="84.86" y1="38.61" y2="38.61" gradientUnits="userSpaceOnUse">
    <stop stop-color="#D9CCC4" offset="0"/>
    <stop stop-color="#F5E7DC" offset="1"/>
  </linearGradient>
  <path d="m77.1 39.9c2.7-1.5 7.5-3.9 8.1-3.2 0.9 1.4-2.7 3.4-8.1 3.2z" fill="url(#SVGID_14_)" stroke="#DAD3CA" stroke-linecap="round" stroke-linejoin="round" stroke-miterlimit="10" stroke-width=".9558"/>
  <path class="cls-7" d="m85.5 67.9c1.6 0.5 2.2 2.5 1.5 3.1-1.7 0-2.8 0.9-5.5 0.1-5 5.4-12.5 6.6-17.2 5.5-10.9-2.6-12.8-15-4.2-20l0.9 1.5c-7.5 5.3-5.9 15.8 4.5 17.5 4.4 0.8 11.1-0.6 15.4-5.5 1.7 0.6 4.5 0.3 5.3 0-0.1-0.5-0.9-1.5-1.3-1.5l0.6-0.7z"/>
  <path class="cls-10" d="m56.9 65.9c0.9 6.5 6.5 9.6 12 10 4.4 0.1 10.1-2 12.5-5.4l-1.2-0.5c-3.3 1.5-5.5 3-11.5 3.1-6.2 0-10.1-3.2-11.8-7.2z"/>
  <path class="cls-4" d="m63.5 63.2c0.2 3.2 3.2 5.4 5.1 5.3 2.5-0.1 5.3-1.6 5.5-2.9-3 0.9-7.9 2-10.6-2.4z"/>
  <linearGradient id="SVGID_15_" x1="69.05" x2="69.05" y1="67.25" y2="59.04" gradientUnits="userSpaceOnUse">
    <stop stop-color="#9DDD99" offset="0"/>
    <stop stop-color="#A4A5AA" offset="1"/>
  </linearGradient>
  <path d="m69 59.1c-2.8-0.5-6.4 1.5-5.3 4.9 2.4 4.6 7 3.6 10.1 1.6 0-1.6-1.5-5.7-4.8-6.5z" fill="url(#SVGID_15_)"/>
  <path class="cls-7" d="m67 54c3.1-0.5 8.7-0.1 13.2 3.6 6.1 4.8 7.6 9.3 5.2 10.8l-0.9-0.4c2.5-1.4-1.5-8.1-8.7-11.3-2.8-1.2-6.7-1.8-9.7-1.2l-1.8 0.4-0.9-0.9 3.6-1z"/>
  <path class="cls-21" d="m78.5 67.5 0.1 0.5c1.2 0.9 2.8 1.6 5.7 1l0.6-0.6 0.1-0.4c-2.5 1-5.1 0.1-6.5-0.5z"/>
  <path class="cls-4" d="m67.4 60.1c-1.3 0.8-1.7 2.9 0.4 3 2.4 0.1 2.8-3.5-0.4-3z"/>
  <path class="cls-6" d="m22.6 102.5c2 7.6 9.6 15 19.2 15.1"/>
  <path class="cls-6" d="m30.2 93.9c0.4 5.7 4.7 13.5 12.5 16.5"/>
  <path class="cls-6" d="m40.1 91.1c0.1 4.3 2.4 8.8 7.7 11.9"/>
  <path class="cls-7" d="m44.6 104.6c-1.6 1.8-3.2 11.3-2.8 14.8l0.8 1.7 2 0.8c2-3.5 2-12.2 1.5-15.5 2.6 1.6 6.6 4.2 9.3 2.5 2-1.3 2-5 1.9-6.3h-1.1c-0.1 0.5 0.1 3.4-1.2 3.9-2.9 1.9-7.9-1.5-9.3-2.4"/>
  <path class="cls-10" d="m44.9 105c-0.8 2.1-3 14.9-2 16.1 2 0.5 3.3-11.2 2.1-16.1h-0.1z"/>
  <linearGradient id="SVGID_16_" x1="45.42" x2="55.56" y1="105.8" y2="105.8" gradientUnits="userSpaceOnUse">
    <stop stop-color="#EFE4D9" offset="0"/>
    <stop stop-color="#F8F0E5" offset="1"/>
  </linearGradient>
  <path d="m45.4 104.5c0.9 1.4 6.8 6 10.1 2.9v-1.4c-1.3-0.6-8-3.3-10.1-1.5z" fill="url(#SVGID_16_)"/>
  <path class="cls-10" d="m46.5 105c2.6 0.6 6.9 1.5 9.1 1-2.5-1.1-7.8-3.5-10.2-1.5l1.1 0.5z"/>
  <path class="cls-6" d="m42.6 121.9c-2 2.2-4.9 6.6-3.9 8.7"/>
  <path class="cls-14" d="m42.5 122.5c-0.8 1.2-4.4 7-3.4 7.6 0.3 0.4 3.4-3.6 3.9-8.2l-0.5 0.6z"/>
  <path class="cls-6" d="m36.7 135.5 2-4.4"/>
  <path class="cls-14" d="m31.5 136.6c0.2-1.2 2.7-2.9 4.8-1.5-0.1 1.4-3 1.6-4.8 1.5z"/>
  <path class="cls-6" d="m31.3 136.6c0.8 0.3 4.9 0.1 5.3-0.6l0.4-1"/>
  <path class="cls-7" d="m72.1 107.1c0.5 4.6 2 10.8 4 11.9 1 2.5 3.3 6.9 4 7.4 0.8 0.3 4.5 0.2 5.7 0 0.7 0-1.7-3.3-5.5-1.8l-3.3-5.7c0.9-2.2-1.6-8.3-4-12.3-2.7-4.1-8.3-6.1-10.4-7.2l-1.5 1.1c1.6 2 5.4 5.6 11 6.6z"/>
  <path class="cls-10" d="m64.3 112.1c-1.4 2.4-2.9 12.3-0.5 13.5 1.9-0.6 2.4-10.5 0.8-13.6l-0.3 0.1z"/>
  <path class="cls-6" d="m63.7 125c0.1 3 0.6 8.1 1.2 9.1 0.8 0.9 4.2 1 5 0.8-0.5-1.5-3-2.8-5-1.8"/>
  <path class="cls-10" d="m58.3 98.6c-0.1 3.8 3.1 13 6.7 13.4 1.6-0.9-2.1-7.9-6.1-13.5l-0.6 0.1z"/>
  <path class="cls-14" d="m58.3 98.6 5.8 12.1c0.5 0.9 1.7 1.3 0.8-1.2-1.4-3.6-3.9-8.4-6.6-10.9z"/>
  <path class="cls-6" d="m58.3 98.5c-0.8 2.4 2.8 13.2 6.7 13.9"/>
  <path class="cls-6" d="m45 104.1c-1.9 1.3-4.1 17.5-1.9 17.3 2 0 3.4-15.5 1.9-17.3z"/>
  <path class="cls-7" d="m89.3 78.6c-3.1 2-9.8 5.9-10 9l0.4 1.3c3 0.7 8.2-5.3 10.5-9.5l-0.9-0.8z"/>
  <path class="cls-10" d="m79.6 88.1c0.1-2.5 7-7.1 9.8-9-2 3-6.4 8.8-9.8 9.3v-0.3z"/>
  <path class="cls-6" d="m79.5 88c-2.9-1-16.4-2.6-16.5-0.6 1.2 2.7 14.4 4.2 16.5 1.2v-0.6z"/>
  <path class="cls-10" d="m63.3 87.4c2.6-1.8 12.5-0.7 15.8 0.7-4.1 0.4-13.6 0.4-15.8-0.7z"/>
  <path class="cls-10" d="m89.8 79c0.2-2.1 4.7-3.5 5.7-1.6-1.8 1.2-5.6 1.5-5.7 1.6z"/>
  <path class="cls-6" d="m89.5 79c0.4-2.4 2.6-3.5 5.6-2.5 3 1.9-5.2 2.6-5.6 2.9v-0.4z"/>
</svg>
